# xmcd
#
# Track frame offsets:
# 150
# 15141
# 34244
# 48438
# 60436
# 78239
# 94289
# 109741
# 124494
# 144612
# 162922
# 176178
# 190951
# 206783
# 222317
# 238872
# 253048
# 271186
# 305181
# 322720
#
# Disc length: 4502 seconds
#
#
# Revision: 0
# Processed by: cddbd v1.5PL3 Copyright (c) Steve Scherf et al.
# Submitted via: FreeRIP 2.53 
#
DISCID=23119414
DTITLE=Conley, Earl Thomas - The Essential Earl Thomas Conley
DYEAR=1900
DGENRE=
TTITLE0=Fire And Smoke
TTITLE1=Somewhere Between Right And Wrong
TTITLE2=Heavenly Bodies
TTITLE3=I Have Loved You Girl
TTITLE4=Angel In Disguise
TTITLE5=Don't Make It Easy For Me
TTITLE6=Your Love's On The Line
TTITLE7=Holding Her And Loving You
TTITLE8=That Was A Close One
TTITLE9=I Can't Win For Losing
TTITLE10=Chance Of Lovin' You
TTITLE11=Honor Bound
TTITLE12=Love Don't Care
TTITLE13=Nobody Falls Like A Fool
TTITLE14=Once In A Blue Moon
TTITLE15=Right From The Start
TTITLE16=What She Is (Is A Woman In Love)
TTITLE17=Love Out Loud
TTITLE18=What I'd Say
TTITLE19=Brotherly Love (Duet with Keith Whitley)
EXTD=
EXTT0=
EXTT1=
EXTT2=
EXTT3=
EXTT4=
EXTT5=
EXTT6=
EXTT7=
EXTT8=
EXTT9=
EXTT10=
EXTT11=
EXTT12=
EXTT13=
EXTT14=
EXTT15=
EXTT16=
EXTT17=
EXTT18=
EXTT19=
PLAYORDER=
